<?xml version="1.0" standalone="no"?>
<!DOCTYPE svg PUBLIC "-//W3C//DTD SVG 20010904//EN"
 "http://www.w3.org/TR/2001/REC-SVG-20010904/DTD/svg10.dtd">
<svg version="1.0" xmlns="http://www.w3.org/2000/svg"
 width="512.000000pt" height="512.000000pt" viewBox="0 0 512.000000 512.000000"
 preserveAspectRatio="xMidYMid meet">

<g transform="translate(0.000000,512.000000) scale(0.100000,-0.100000)"
fill="#000000" stroke="none">
<path d="M3985 5106 c-242 -56 -412 -243 -446 -490 -20 -150 26 -315 121 -430
l39 -46 -331 -468 c-182 -257 -333 -470 -337 -474 -3 -4 -34 6 -68 23 -200 96
-454 94 -650 -5 -72 -36 -144 -86 -203 -141 l-35 -33 -432 337 c-237 185 -435
339 -438 343 -4 4 3 35 15 70 23 65 28 160 14 243 -20 117 -129 252 -249 311
-176 84 -384 46 -519 -96 -83 -87 -118 -168 -124 -290 -3 -79 -1 -106 18 -160
42 -126 118 -213 235 -271 129 -63 266 -61 402 6 63 31 76 34 91 23 11 -7 212
-163 449 -347 l430 -333 -30 -86 c-89 -258 -28 -552 155 -747 38 -42 57 -69
52 -77 -19 -32 -509 -725 -524 -741 -17 -18 -19 -18 -67 6 -111 57 -287 74
-416 41 -270 -67 -461 -315 -460 -594 1 -169 60 -307 183 -431 119 -120 260
-179 430 -179 166 0 308 59 426 175 109 109 169 238 180 390 11 143 -24 277
-101 389 l-37 53 268 379 c147 209 274 387 283 396 15 15 22 14 105 -14 149
-50 318 -49 463 2 l53 19 124 -182 c68 -100 218 -321 333 -492 l211 -310 -33
-45 c-121 -167 -138 -363 -48 -550 35 -72 151 -188 223 -223 61 -30 173 -57
235 -57 62 0 174 27 232 56 176 86 294 292 280 489 -16 228 -157 404 -376 469
-78 23 -203 21 -287 -5 -55 -17 -69 -18 -75 -7 -4 7 -151 225 -326 483 l-319
470 76 81 c75 80 141 188 170 277 6 20 17 37 24 37 11 0 429 -82 482 -95 18
-4 22 -15 27 -62 12 -115 107 -257 215 -320 214 -125 496 -55 619 154 80 138
85 328 10 453 -90 151 -226 230 -397 231 -168 1 -311 -82 -396 -228 -10 -18
-23 -33 -28 -33 -9 0 -448 85 -492 95 -18 4 -23 15 -29 71 -15 145 -65 270
-154 387 l-49 65 325 459 c179 252 331 467 338 477 14 18 16 18 87 -5 95 -31
254 -33 338 -5 249 84 410 300 410 551 0 194 -113 397 -274 490 -126 74 -290
101 -421 71z"/>
</g>
</svg>
